<svg width="73" height="76" viewBox="0 0 73 76" fill="none" xmlns="http://www.w3.org/2000/svg">
<path d="M32.252 2.27197C34.76 0.35197 38.246 0.35197 40.754 2.27197L70.526 25.03C74.318 27.928 72.284 33.976 67.52 34H5.48C0.722 33.976 -1.318 27.928 2.48 25.03L32.252 2.27197ZM36.5 23.5C37.6935 23.5 38.8381 23.0259 39.682 22.1819C40.5259 21.338 41 20.1934 41 19C41 17.8065 40.5259 16.6619 39.682 15.818C38.8381 14.9741 37.6935 14.5 36.5 14.5C35.3065 14.5 34.1619 14.9741 33.318 15.818C32.4741 16.6619 32 17.8065 32 19C32 20.1934 32.4741 21.338 33.318 22.1819C34.1619 23.0259 35.3065 23.5 36.5 23.5ZM9.5 40V58H18.5V40H9.5ZM24.5 40V58H33.5V40H24.5ZM39.5 40V58H48.5V40H39.5ZM54.5 40V58H63.5V40H54.5ZM0.5 71.5C0.5 67.36 3.86 64 8 64H65C69.14 64 72.5 67.36 72.5 71.5V73C72.5 73.7956 72.1839 74.5587 71.6213 75.1213C71.0587 75.6839 70.2956 76 69.5 76H3.5C2.70435 76 1.94129 75.6839 1.37868 75.1213C0.816071 74.5587 0.5 73.7956 0.5 73V71.5Z" fill="#A5170F"/>
</svg>
