<svg width="84" height="83" viewBox="0 0 84 83" fill="none" xmlns="http://www.w3.org/2000/svg">
<path d="M58.5 6.67449e-06C55.1719 -0.000707653 51.8871 0.753645 48.8928 2.20627C45.8985 3.65889 43.2728 5.77191 41.2133 8.38624C39.1539 11.0006 37.7144 14.0481 37.0033 17.2993C36.2922 20.5505 36.328 23.9206 37.108 27.156L3.86399 60.4C2.77992 61.4624 1.9172 62.7292 1.32573 64.127C0.734266 65.5249 0.425781 67.0262 0.418115 68.544C0.410449 70.0619 0.703755 71.5662 1.28107 72.97C1.85839 74.3737 2.70826 75.6492 3.78155 76.7224C4.85484 77.7957 6.13026 78.6456 7.53404 79.2229C8.93782 79.8002 10.4421 80.0936 11.96 80.0859C13.4778 80.0782 14.9791 79.7697 16.377 79.1783C17.7748 78.5868 19.0416 77.7241 20.104 76.64L36.564 60.188C36.8554 56.0014 38.1559 51.9475 40.3545 48.3727C42.553 44.7978 45.5843 41.8084 49.1892 39.6596C52.7942 37.5109 56.8657 36.2667 61.056 36.0334C65.2463 35.8001 69.4308 36.5847 73.252 38.32C75.5366 36.2598 77.3625 33.7422 78.6111 30.9306C79.8598 28.1191 80.5033 25.0764 80.5 22C80.5021 19.6278 80.1212 17.2708 79.372 15.02C79.2098 14.5351 78.9264 14.0997 78.5486 13.7552C78.1708 13.4106 77.7113 13.1683 77.2135 13.0513C76.7158 12.9343 76.1964 12.9464 75.7047 13.0866C75.213 13.2267 74.7653 13.4902 74.404 13.852L64.628 23.628C64.0655 24.1898 63.303 24.5054 62.508 24.5054C61.713 24.5054 60.9505 24.1898 60.388 23.628L56.872 20.116C56.3102 19.5535 55.9946 18.791 55.9946 17.996C55.9946 17.201 56.3102 16.4385 56.872 15.876L66.652 6.09601C67.0128 5.7344 67.2753 5.28666 67.4146 4.7952C67.5539 4.30374 67.5654 3.78486 67.448 3.28771C67.3307 2.79056 67.0883 2.33161 66.7439 1.95436C66.3995 1.57711 65.9644 1.29405 65.48 1.13201C63.2297 0.380437 60.8725 -0.00184221 58.5 6.67449e-06ZM49.608 47.904C49.9065 48.9382 49.9932 50.0219 49.8629 51.0904C49.7327 52.1589 49.3882 53.1901 48.85 54.1222C48.3118 55.0544 47.5911 55.8684 46.7309 56.5155C45.8707 57.1625 44.8888 57.6294 43.844 57.888L41.508 58.464C41.1331 60.8607 41.1412 63.3018 41.532 65.696L43.692 66.216C44.7463 66.47 45.738 66.9356 46.6068 67.5847C47.4755 68.2338 48.2033 69.0527 48.7458 69.9918C49.2882 70.9308 49.6341 71.9704 49.7624 73.0472C49.8907 74.1241 49.7987 75.2158 49.492 76.256L48.744 78.78C50.504 80.324 52.504 81.576 54.684 82.468L56.656 80.392C57.4033 79.6059 58.3027 78.98 59.2994 78.5523C60.2961 78.1247 61.3694 77.9041 62.454 77.9041C63.5386 77.9041 64.6119 78.1247 65.6086 78.5523C66.6053 78.98 67.5047 79.6059 68.252 80.392L70.248 82.492C72.4125 81.6112 74.4158 80.3771 76.176 78.84L75.384 76.096C75.0856 75.0616 74.999 73.9775 75.1295 72.9089C75.26 71.8402 75.6049 70.8088 76.1434 69.8766C76.682 68.9444 77.4032 68.1304 78.2638 67.4836C79.1245 66.8367 80.1068 66.3702 81.152 66.112L83.484 65.536C83.8588 63.1393 83.8507 60.6982 83.46 58.304L81.3 57.784C80.246 57.5296 79.2548 57.0636 78.3865 56.4143C77.5181 55.7651 76.7908 54.946 76.2488 54.007C75.7067 53.0681 75.3611 52.0287 75.2331 50.952C75.1051 49.8754 75.1972 48.7839 75.504 47.744L76.248 45.224C74.4878 43.6737 72.4817 42.4273 70.312 41.536L68.34 43.608C67.5926 44.3947 66.693 45.0211 65.6959 45.4492C64.6989 45.8773 63.6251 46.098 62.54 46.098C61.4549 46.098 60.3811 45.8773 59.384 45.4492C58.3869 45.0211 57.4874 44.3947 56.74 43.608L54.748 41.508C52.572 42.388 50.572 43.628 48.816 45.156L49.608 47.904ZM62.5 68C59.3 68 56.7 65.312 56.7 62C56.7 58.688 59.3 56 62.5 56C65.7 56 68.3 58.688 68.3 62C68.3 65.312 65.7 68 62.5 68Z" fill="#A5170F"/>
</svg>
